<svg id="Laag_1" data-name="Laag 1" xmlns="http://www.w3.org/2000/svg" xmlns:xlink="http://www.w3.org/1999/xlink" viewBox="0 0 1242 2208"><defs><style>.cls-1{fill:url(#Naamloos_verloop_153);}.cls-2{opacity:0.73;}.cls-3{fill:#b4edeb;}.cls-4{fill:#f2df2f;opacity:0.72;}.cls-5,.cls-7{fill:none;stroke:#000;stroke-miterlimit:10;stroke-width:5px;}.cls-6{opacity:0.27;}.cls-7{opacity:0.56;}</style><linearGradient id="Naamloos_verloop_153" x1="621" y1="11.92" x2="621" y2="2190.73" gradientUnits="userSpaceOnUse"><stop offset="0.07" stop-color="#fcfedb"/><stop offset="0.64" stop-color="#fcfef2"/><stop offset="0.7" stop-color="#f6fbf1"/><stop offset="0.79" stop-color="#e4f3ed"/><stop offset="0.89" stop-color="#c6e5e7"/><stop offset="1" stop-color="#a0d3e0"/></linearGradient></defs><title>Tekengebied 1 kopie</title><rect class="cls-1" width="1242" height="2208"/><g class="cls-2"><rect class="cls-3" x="862.68" y="735.07" width="227.25" height="104.87" rx="52.43" ry="52.43" transform="translate(1952.61 1575.01) rotate(-180)"/><rect class="cls-3" x="743.36" y="795.83" width="167.61" height="134.19" rx="67.1" ry="67.1" transform="translate(1654.34 1725.85) rotate(180)"/><rect class="cls-3" x="845.83" y="832.81" width="262.17" height="134.19" rx="67.1" ry="67.1" transform="translate(1953.83 1799.81) rotate(180)"/></g><ellipse class="cls-4" cx="468.91" cy="423.28" rx="280.27" ry="290.39"/><g class="cls-2"><path class="cls-5" d="M316.14,1480.49c-36.52-34.59-93.44-33.69-127.28,2"/><path class="cls-5" d="M453.07,1479.21c-38.69-36.65-100-34.65-137.06,4.48"/></g><g class="cls-6"><path class="cls-5" d="M1019.35,432.59c-21.59-20.46-55.25-19.92-75.26,1.19"/><path class="cls-5" d="M1100.32,431.83c-22.88-21.67-59.13-20.49-81,2.65"/></g><path class="cls-7" d="M850.77,1154.1c-25.41-24.07-65-23.44-88.57,1.41"/><path class="cls-7" d="M946.07,1153.21c-26.93-25.5-69.59-24.11-95.38,3.12"/></svg>