<svg id="Laag_1" data-name="Laag 1" xmlns="http://www.w3.org/2000/svg" xmlns:xlink="http://www.w3.org/1999/xlink" viewBox="0 0 1242 2208"><defs><style>.cls-1{fill:url(#Naamloos_verloop_165);}.cls-2,.cls-3,.cls-4{fill:#fff;}.cls-2{opacity:0.72;}.cls-3{opacity:0.38;}.cls-4{opacity:0.71;}</style><linearGradient id="Naamloos_verloop_165" x1="621" y1="11.92" x2="621" y2="2190.73" gradientUnits="userSpaceOnUse"><stop offset="0" stop-color="#0b0055"/><stop offset="0.08" stop-color="#1e0055"/><stop offset="0.22" stop-color="#3c0055"/><stop offset="0.31" stop-color="#3e0558"/><stop offset="0.42" stop-color="#451261"/><stop offset="0.53" stop-color="#4f2970"/><stop offset="0.64" stop-color="#5e4985"/><stop offset="0.76" stop-color="#7272a0"/><stop offset="0.88" stop-color="#89a3c0"/><stop offset="0.98" stop-color="#a0d3e0"/></linearGradient></defs><title>Tekengebied 1 kopie 5</title><rect class="cls-1" width="1242" height="2208"/><path class="cls-2" d="M914.17,299.55c0-76.14,59.58-137.86,133.06-137.86a129.34,129.34,0,0,1,23.77,2.19,129.64,129.64,0,0,0-83.11-30.21c-73.49,0-133.07,61.73-133.07,137.87,0,67.74,47.15,124.06,109.3,135.67C933.67,382,914.17,343.11,914.17,299.55Z"/><polygon class="cls-3" points="128.1 68.96 108.84 80.02 98.59 99.73 87.53 80.47 67.82 70.22 87.08 59.16 97.33 39.45 108.39 58.71 128.1 68.96"/><polygon class="cls-3" points="421.1 383.96 401.84 395.02 391.59 414.73 380.53 395.47 360.82 385.22 380.08 374.16 390.33 354.45 401.39 373.71 421.1 383.96"/><polygon class="cls-4" points="981.1 885.96 961.84 897.02 951.59 916.73 940.53 897.47 920.82 887.22 940.08 876.16 950.33 856.45 961.39 875.71 981.1 885.96"/><polygon class="cls-4" points="360.67 766.16 328.13 784.85 310.82 818.14 292.14 785.61 258.85 768.3 291.38 749.61 308.69 716.32 327.38 748.86 360.67 766.16"/><polygon class="cls-4" points="710.1 78.96 690.84 90.02 680.59 109.73 669.53 90.47 649.82 80.22 669.08 69.16 679.33 49.45 690.39 68.71 710.1 78.96"/><polygon class="cls-3" points="1175.1 393.96 1155.84 405.02 1145.59 424.73 1134.53 405.47 1114.82 395.22 1134.08 384.16 1144.33 364.45 1155.39 383.71 1175.1 393.96"/><polygon class="cls-3" points="942.67 1174.16 910.13 1192.85 892.83 1226.14 874.14 1193.61 840.85 1176.3 873.38 1157.61 890.69 1124.32 909.38 1156.86 942.67 1174.16"/></svg>