<svg id="Laag_1" data-name="Laag 1" xmlns="http://www.w3.org/2000/svg" xmlns:xlink="http://www.w3.org/1999/xlink" viewBox="0 0 8475 3186.1"><defs><style>.cls-1,.cls-11,.cls-13{fill:none;}.cls-2{fill:url(#Naamloos_verloop_165);}.cls-3{fill:url(#Naamloos_verloop_153);}.cls-4{opacity:0.73;}.cls-5{fill:#b4edeb;}.cls-6{fill:url(#Naamloos_verloop_117);}.cls-7{fill:#f2df2f;}.cls-7,.cls-8{opacity:0.72;}.cls-10,.cls-15,.cls-30,.cls-8,.cls-9{fill:#fff;}.cls-9{opacity:0.38;}.cls-10{opacity:0.71;}.cls-11,.cls-13{stroke:#000;stroke-miterlimit:10;stroke-width:5px;}.cls-12{opacity:0.27;}.cls-13{opacity:0.56;}.cls-14{clip-path:url(#clip-path);}.cls-15{opacity:0.58;}.cls-16{clip-path:url(#clip-path-2);}.cls-17{fill:url(#Naamloos_verloop_140);}.cls-18{opacity:0.77;}.cls-19{fill:#edc24a;}.cls-20{opacity:0.42;}.cls-21{fill:#e4ffff;}.cls-22{clip-path:url(#clip-path-3);}.cls-23{fill:url(#Naamloos_verloop_104);}.cls-24{opacity:0.65;}.cls-25{fill:#4c35d3;}.cls-26{opacity:0.59;}.cls-27{fill:#e8bd46;}.cls-28{opacity:0.44;}.cls-29{fill:#eae654;}.cls-30{opacity:0.47;}.cls-31{clip-path:url(#clip-path-4);}.cls-32{fill:url(#Naamloos_verloop_16);}.cls-33{opacity:0.29;}.cls-34{opacity:0.43;}</style><linearGradient id="Naamloos_verloop_165" x1="7854" y1="12.18" x2="7854" y2="2238.35" gradientUnits="userSpaceOnUse"><stop offset="0" stop-color="#0b0055"/><stop offset="0.08" stop-color="#1e0055"/><stop offset="0.22" stop-color="#3c0055"/><stop offset="0.31" stop-color="#3e0558"/><stop offset="0.42" stop-color="#451261"/><stop offset="0.53" stop-color="#4f2970"/><stop offset="0.64" stop-color="#5e4985"/><stop offset="0.76" stop-color="#7272a0"/><stop offset="0.88" stop-color="#89a3c0"/><stop offset="0.98" stop-color="#a0d3e0"/></linearGradient><linearGradient id="Naamloos_verloop_153" x1="2077" y1="12.18" x2="2077" y2="2238.35" gradientUnits="userSpaceOnUse"><stop offset="0.07" stop-color="#fcfedb"/><stop offset="0.64" stop-color="#fcfef2"/><stop offset="0.7" stop-color="#f6fbf1"/><stop offset="0.79" stop-color="#e4f3ed"/><stop offset="0.89" stop-color="#c6e5e7"/><stop offset="1" stop-color="#a0d3e0"/></linearGradient><linearGradient id="Naamloos_verloop_117" x1="6405" y1="12.18" x2="6405" y2="2238.35" gradientUnits="userSpaceOnUse"><stop offset="0.25" stop-color="#0b003a"/><stop offset="0.55" stop-color="#0b0055"/><stop offset="0.71" stop-color="#1e0055"/><stop offset="1" stop-color="#3c0055"/></linearGradient><clipPath id="clip-path" transform="translate(0 0)"><rect class="cls-1" x="5784" width="1242" height="2208"/></clipPath><clipPath id="clip-path-2" transform="translate(0 0)"><rect class="cls-1" x="2905" width="1242" height="2519"/></clipPath><linearGradient id="Naamloos_verloop_140" x1="3526" y1="12.18" x2="3526" y2="2238.35" gradientUnits="userSpaceOnUse"><stop offset="0" stop-color="#fa9c3b"/><stop offset="0.49" stop-color="#faca3b"/><stop offset="1" stop-color="#fcfedb"/></linearGradient><clipPath id="clip-path-3" transform="translate(0 0)"><rect class="cls-1" x="4361" width="1242" height="2519"/></clipPath><linearGradient id="Naamloos_verloop_104" x1="4982" y1="12.18" x2="4982" y2="2238.35" gradientUnits="userSpaceOnUse"><stop offset="0" stop-color="#0b0055"/><stop offset="0.12" stop-color="#0e0055"/><stop offset="0.21" stop-color="#180055"/><stop offset="0.3" stop-color="#290055"/><stop offset="0.37" stop-color="#3c0055"/><stop offset="0.44" stop-color="#420554"/><stop offset="0.53" stop-color="#531352"/><stop offset="0.64" stop-color="#6e294e"/><stop offset="0.76" stop-color="#954949"/><stop offset="0.88" stop-color="#c67142"/><stop offset="1" stop-color="#fa9c3b"/></linearGradient><clipPath id="clip-path-4" transform="translate(0 0)"><rect class="cls-1" y="20" width="1242" height="2236"/></clipPath><linearGradient id="Naamloos_verloop_16" x1="621" y1="32.08" x2="621" y2="2239.76" gradientUnits="userSpaceOnUse"><stop offset="0.35" stop-color="#a0d3e0"/><stop offset="1" stop-color="#ffffac"/></linearGradient></defs><title>mobileriseandshine</title><rect class="cls-2" x="7233" width="1242" height="2256"/><rect class="cls-3" x="1456" width="1242" height="2256"/><g class="cls-4"><rect class="cls-5" x="2318.68" y="735.07" width="227.25" height="104.87" rx="52.43" ry="52.43" transform="translate(4864.61 1575.01) rotate(-180)"/><rect class="cls-5" x="2199.36" y="795.83" width="167.61" height="134.19" rx="67.1" ry="67.1" transform="translate(4566.34 1725.85) rotate(180)"/><rect class="cls-5" x="2301.83" y="832.81" width="262.17" height="134.19" rx="67.1" ry="67.1" transform="translate(4865.83 1799.81) rotate(180)"/></g><rect class="cls-6" x="5784" width="1242" height="2256"/><ellipse class="cls-7" cx="1924.91" cy="423.28" rx="280.27" ry="290.39"/><path class="cls-8" d="M8147.17,299.55c0-76.14,59.58-137.86,133.06-137.86a129.34,129.34,0,0,1,23.77,2.19,129.64,129.64,0,0,0-83.11-30.21c-73.49,0-133.07,61.73-133.07,137.87,0,67.74,47.15,124.06,109.3,135.67C8166.67,382,8147.17,343.11,8147.17,299.55Z" transform="translate(0 0)"/><polygon class="cls-9" points="7361.1 68.96 7341.84 80.02 7331.59 99.73 7320.53 80.47 7300.82 70.22 7320.08 59.16 7330.33 39.45 7341.39 58.71 7361.1 68.96"/><polygon class="cls-9" points="7654.1 383.96 7634.84 395.02 7624.59 414.73 7613.53 395.47 7593.82 385.22 7613.08 374.16 7623.33 354.45 7634.39 373.71 7654.1 383.96"/><polygon class="cls-10" points="8214.1 885.96 8194.84 897.02 8184.59 916.73 8173.53 897.47 8153.82 887.22 8173.08 876.16 8183.33 856.45 8194.39 875.71 8214.1 885.96"/><polygon class="cls-10" points="7593.67 766.16 7561.13 784.85 7543.82 818.14 7525.14 785.61 7491.85 768.3 7524.38 749.61 7541.69 716.32 7560.38 748.86 7593.67 766.16"/><polygon class="cls-10" points="7943.1 78.96 7923.84 90.02 7913.59 109.73 7902.53 90.47 7882.82 80.22 7902.08 69.16 7912.33 49.45 7923.39 68.71 7943.1 78.96"/><polygon class="cls-9" points="8408.1 393.96 8388.84 405.02 8378.59 424.73 8367.53 405.47 8347.82 395.22 8367.08 384.16 8377.33 364.45 8388.39 383.71 8408.1 393.96"/><polygon class="cls-9" points="8175.67 1174.16 8143.13 1192.85 8125.82 1226.14 8107.14 1193.61 8073.85 1176.3 8106.38 1157.61 8123.69 1124.32 8142.38 1156.86 8175.67 1174.16"/><path class="cls-1" d="M1328,771h178" transform="translate(0 0)"/><g class="cls-4"><path class="cls-11" d="M1772.14,1480.49c-36.52-34.59-93.44-33.69-127.28,2" transform="translate(0 0)"/><path class="cls-11" d="M1909.07,1479.21c-38.69-36.65-100-34.65-137.06,4.48" transform="translate(0 0)"/></g><g class="cls-12"><path class="cls-11" d="M2475.35,432.59c-21.59-20.46-55.25-19.92-75.26,1.19" transform="translate(0 0)"/><path class="cls-11" d="M2556.32,431.83c-22.88-21.67-59.13-20.49-81.05,2.65" transform="translate(0 0)"/></g><path class="cls-13" d="M2306.77,1154.1c-25.41-24.07-65-23.44-88.57,1.41" transform="translate(0 0)"/><path class="cls-13" d="M2402.07,1153.21c-26.93-25.5-69.59-24.11-95.38,3.12" transform="translate(0 0)"/><g class="cls-14"><path class="cls-8" d="M6079.35,488.13C6052.87,337.87,6149,195.34,6294,169.79a258.43,258.43,0,0,1,47.66-3.94c-51.51-29.37-112.46-41.64-174.52-30.7-145,25.55-241.12,168.08-214.64,318.34,23.56,133.67,136.19,228.43,262.87,229.72C6146.49,643.94,6094.5,574.09,6079.35,488.13Z" transform="translate(0 0)"/><polygon class="cls-15" points="6502.1 799.96 6482.84 811.02 6472.59 830.73 6461.53 811.47 6441.82 801.22 6461.08 790.16 6471.33 770.45 6482.39 789.71 6502.1 799.96"/><polygon class="cls-10" points="6410.67 148.16 6378.13 166.85 6360.82 200.14 6342.14 167.61 6308.85 150.3 6341.38 131.61 6358.69 98.32 6377.38 130.85 6410.67 148.16"/><polygon class="cls-15" points="6441.1 1641.96 6421.84 1653.02 6411.59 1672.73 6400.53 1653.47 6380.82 1643.22 6400.08 1632.16 6410.33 1612.45 6421.39 1631.71 6441.1 1641.96"/><polygon class="cls-10" points="6472.1 2108.96 6452.84 2120.02 6442.59 2139.73 6431.53 2120.47 6411.82 2110.22 6431.08 2099.16 6441.33 2079.45 6452.39 2098.71 6472.1 2108.96"/><polygon class="cls-10" points="7058.04 1793.4 7021.11 1800.02 6993.58 1825.51 6986.97 1788.58 6961.48 1761.06 6998.4 1754.44 7025.93 1728.95 7032.55 1765.88 7058.04 1793.4"/><polygon class="cls-15" points="7009.67 850.16 6977.13 868.85 6959.82 902.14 6941.14 869.61 6907.85 852.3 6940.38 833.61 6957.69 800.32 6976.38 832.86 7009.67 850.16"/><polygon class="cls-15" points="5952.1 1671.96 5932.84 1683.02 5922.59 1702.73 5911.53 1683.47 5891.82 1673.22 5911.08 1662.16 5921.33 1642.45 5932.39 1661.71 5952.1 1671.96"/><polygon class="cls-10" points="5972.67 989.16 5940.13 1007.85 5922.82 1041.14 5904.14 1008.61 5870.85 991.3 5903.38 972.61 5920.69 939.32 5939.38 971.86 5972.67 989.16"/></g><g class="cls-16"><rect class="cls-17" x="2905" width="1242" height="2256"/><g class="cls-18"><rect class="cls-19" x="3075.09" y="73" width="468.72" height="125.7" rx="62.85" ry="62.85" transform="translate(6618.89 271.7) rotate(-180)"/><rect class="cls-19" x="2829" y="145.82" width="345.71" height="160.85" rx="80.42" ry="80.42" transform="translate(6003.71 452.49) rotate(180)"/><rect class="cls-19" x="3040.34" y="190.15" width="540.74" height="160.85" rx="80.42" ry="80.42" transform="translate(6621.41 541.15) rotate(180)"/></g><g class="cls-20"><rect class="cls-21" x="2905" y="1598.82" width="197.2" height="126.35" rx="63.18" ry="63.18" transform="translate(6007.2 3324) rotate(180)"/><rect class="cls-21" x="3025.55" y="1633.65" width="308.45" height="126.35" rx="63.18" ry="63.18" transform="translate(6359.55 3393.65) rotate(-180)"/></g><ellipse class="cls-7" cx="3578.3" cy="1326.77" rx="280.27" ry="290.39"/><rect class="cls-1" x="2905" width="1242" height="2519"/></g><g class="cls-22"><rect class="cls-23" x="4361" width="1242" height="2256"/><g class="cls-24"><rect class="cls-25" x="5138.02" y="351" width="272.4" height="125.7" rx="62.85" ry="62.85" transform="translate(10548.43 827.7) rotate(180)"/><rect class="cls-25" x="4995" y="423.82" width="200.91" height="160.85" rx="80.42" ry="80.42" transform="translate(10190.91 1008.5) rotate(180)"/><rect class="cls-25" x="5117.82" y="468.15" width="314.25" height="160.85" rx="80.42" ry="80.42" transform="translate(10549.89 1097.15) rotate(-180)"/></g><g class="cls-26"><rect class="cls-27" x="4344.89" y="1387" width="639.11" height="163.13" rx="81.57" ry="81.57" transform="translate(9328.89 2937.13) rotate(180)"/><rect class="cls-27" x="4234" y="1468.84" width="435.38" height="277.16" rx="138.58" ry="138.58" transform="translate(8903.38 3214.84) rotate(180)"/></g><g class="cls-28"><rect class="cls-29" x="4739" y="2060.4" width="695.35" height="123.6" rx="61.8" ry="61.8"/><rect class="cls-29" x="5081.31" y="1912" width="473.69" height="209.99" rx="105" ry="105"/></g><path class="cls-8" d="M4565.17,255.55c0-76.14,59.58-137.86,133.06-137.86a129.34,129.34,0,0,1,23.77,2.19,129.64,129.64,0,0,0-83.11-30.21c-73.49,0-133.07,61.73-133.07,137.87,0,67.74,47.15,124.06,109.3,135.67C4584.67,338,4565.17,299.11,4565.17,255.55Z" transform="translate(0 0)"/><polygon class="cls-10" points="5253.39 184.75 5242.33 165.49 5222.62 155.24 5241.88 144.18 5252.13 124.47 5263.19 143.73 5282.9 153.98 5263.64 165.04 5253.39 184.75"/><polygon class="cls-10" points="4751.39 572.75 4740.33 553.49 4720.62 543.24 4739.88 532.18 4750.13 512.47 4761.19 531.73 4780.9 541.98 4761.64 553.04 4751.39 572.75"/><polygon class="cls-10" points="5434.19 593.32 5415.5 560.78 5382.21 543.47 5414.74 524.78 5432.05 491.5 5450.74 524.03 5484.03 541.34 5451.49 560.03 5434.19 593.32"/><polygon class="cls-30" points="5558.39 301.75 5547.33 282.49 5527.62 272.24 5546.88 261.18 5557.13 241.47 5568.19 260.73 5587.9 270.98 5568.64 282.04 5558.39 301.75"/><polygon class="cls-30" points="5243.39 766.75 5232.33 747.49 5212.62 737.24 5231.88 726.18 5242.13 706.47 5253.19 725.73 5272.9 735.98 5253.64 747.04 5243.39 766.75"/><polygon class="cls-10" points="4463.19 534.32 4444.5 501.78 4411.21 484.47 4443.74 465.78 4461.05 432.5 4479.74 465.03 4513.03 482.34 4480.49 501.03 4463.19 534.32"/><rect class="cls-1" x="4361" width="1242" height="2208"/></g><g class="cls-31"><rect class="cls-32" y="20" width="1242" height="2237.26"/><g class="cls-33"><rect class="cls-21" x="892.51" y="230.46" width="220" height="145.57" rx="56.67" ry="56.67" transform="translate(2005.01 606.49) rotate(-180)"/><rect class="cls-21" x="777" y="314.8" width="162.26" height="186.28" rx="72.52" ry="72.52" transform="translate(1716.26 815.87) rotate(180)"/><rect class="cls-21" x="876.2" y="366.13" width="253.8" height="186.28" rx="72.52" ry="72.52" transform="translate(2006.19 918.55) rotate(180)"/></g><ellipse class="cls-7" cx="385.42" cy="2279.56" rx="280.44" ry="280.51"/><g class="cls-34"><rect class="cls-21" x="122" y="1166.21" width="265.06" height="146.07" rx="56.87" ry="56.87"/><rect class="cls-21" x="252.49" y="990.83" width="293.51" height="248.17" rx="96.62" ry="96.62"/></g><rect class="cls-1" y="20" width="1242" height="3166.1"/></g></svg>