<svg id="Laag_1" data-name="Laag 1" xmlns="http://www.w3.org/2000/svg" xmlns:xlink="http://www.w3.org/1999/xlink" viewBox="0 0 1242 2256"><defs><style>.cls-1{fill:none;}.cls-2{clip-path:url(#clip-path);}.cls-3{fill:url(#Naamloos_verloop_104);}.cls-4{opacity:0.65;}.cls-5{fill:#4c35d3;}.cls-6{opacity:0.59;}.cls-7{fill:#e8bd46;}.cls-8{opacity:0.44;}.cls-9{fill:#eae654;}.cls-10,.cls-11,.cls-12{fill:#fff;}.cls-10{opacity:0.72;}.cls-11{opacity:0.71;}.cls-12{opacity:0.47;}</style><clipPath id="clip-path"><rect class="cls-1" width="1242" height="2519"/></clipPath><linearGradient id="Naamloos_verloop_104" x1="621" y1="12.18" x2="621" y2="2238.35" gradientUnits="userSpaceOnUse"><stop offset="0" stop-color="#0b0055"/><stop offset="0.12" stop-color="#0e0055"/><stop offset="0.21" stop-color="#180055"/><stop offset="0.3" stop-color="#290055"/><stop offset="0.37" stop-color="#3c0055"/><stop offset="0.44" stop-color="#420554"/><stop offset="0.53" stop-color="#531352"/><stop offset="0.64" stop-color="#6e294e"/><stop offset="0.76" stop-color="#954949"/><stop offset="0.88" stop-color="#c67142"/><stop offset="1" stop-color="#fa9c3b"/></linearGradient></defs><title>mobileevening</title><g class="cls-2"><rect class="cls-3" width="1242" height="2256"/><g class="cls-4"><rect class="cls-5" x="777.02" y="351" width="272.4" height="125.7" rx="62.85" ry="62.85" transform="translate(1826.43 827.7) rotate(180)"/><rect class="cls-5" x="634" y="423.82" width="200.91" height="160.85" rx="80.42" ry="80.42" transform="translate(1468.91 1008.5) rotate(180)"/><rect class="cls-5" x="756.82" y="468.15" width="314.25" height="160.85" rx="80.42" ry="80.42" transform="translate(1827.89 1097.15) rotate(-180)"/></g><g class="cls-6"><rect class="cls-7" x="-16.11" y="1387" width="639.11" height="163.13" rx="81.57" ry="81.57" transform="translate(606.89 2937.13) rotate(180)"/><rect class="cls-7" x="-127" y="1468.84" width="435.38" height="277.16" rx="138.58" ry="138.58" transform="translate(181.38 3214.84) rotate(180)"/></g><g class="cls-8"><rect class="cls-9" x="378" y="2060.4" width="695.35" height="123.6" rx="61.8" ry="61.8"/><rect class="cls-9" x="720.31" y="1912" width="473.69" height="209.99" rx="105" ry="105"/></g><path class="cls-10" d="M204.17,255.55c0-76.14,59.58-137.86,133.06-137.86A129.34,129.34,0,0,1,361,119.88a129.64,129.64,0,0,0-83.11-30.21c-73.49,0-133.07,61.73-133.07,137.87,0,67.74,47.15,124.06,109.3,135.67C223.67,338,204.17,299.11,204.17,255.55Z"/><polygon class="cls-11" points="892.39 184.75 881.33 165.49 861.62 155.24 880.88 144.18 891.13 124.47 902.19 143.73 921.9 153.98 902.64 165.04 892.39 184.75"/><polygon class="cls-11" points="390.39 572.75 379.33 553.49 359.62 543.24 378.88 532.18 389.13 512.47 400.19 531.73 419.9 541.98 400.64 553.04 390.39 572.75"/><polygon class="cls-11" points="1073.18 593.32 1054.5 560.78 1021.21 543.47 1053.74 524.78 1071.05 491.5 1089.74 524.03 1123.03 541.34 1090.49 560.03 1073.18 593.32"/><polygon class="cls-12" points="1197.39 301.75 1186.33 282.49 1166.62 272.24 1185.88 261.18 1196.13 241.47 1207.19 260.73 1226.9 270.98 1207.64 282.04 1197.39 301.75"/><polygon class="cls-12" points="882.39 766.75 871.33 747.49 851.62 737.24 870.88 726.18 881.13 706.47 892.19 725.73 911.9 735.98 892.64 747.04 882.39 766.75"/><polygon class="cls-11" points="102.19 534.32 83.5 501.78 50.21 484.47 82.74 465.78 100.05 432.5 118.74 465.03 152.03 482.34 119.49 501.03 102.19 534.32"/><rect class="cls-1" width="1242" height="2208"/></g></svg>