<svg id="Laag_1" data-name="Laag 1" xmlns="http://www.w3.org/2000/svg" xmlns:xlink="http://www.w3.org/1999/xlink" viewBox="0 0 1242 2519"><defs><style>.cls-1{fill:none;}.cls-2{fill:url(#Naamloos_verloop_117);}.cls-3{clip-path:url(#clip-path);}.cls-4,.cls-5,.cls-6{fill:#fff;}.cls-4{opacity:0.72;}.cls-5{opacity:0.58;}.cls-6{opacity:0.71;}</style><linearGradient id="Naamloos_verloop_117" x1="621" y1="13.6" x2="621" y2="2499.3" gradientUnits="userSpaceOnUse"><stop offset="0.25" stop-color="#0b003a"/><stop offset="0.55" stop-color="#0b0055"/><stop offset="0.71" stop-color="#1e0055"/><stop offset="1" stop-color="#3c0055"/></linearGradient><clipPath id="clip-path"><rect class="cls-1" width="1242" height="2208"/></clipPath></defs><title>mobilenight</title><rect class="cls-2" width="1242" height="2519"/><g class="cls-3"><path class="cls-4" d="M295.35,488.13C268.87,337.87,365,195.34,510,169.79a258.43,258.43,0,0,1,47.66-3.94c-51.51-29.37-112.46-41.64-174.52-30.7C238.11,160.7,142,303.23,168.49,453.49c23.56,133.67,136.19,228.43,262.87,229.72C362.49,643.94,310.5,574.09,295.35,488.13Z"/><polygon class="cls-5" points="718.1 799.96 698.84 811.02 688.59 830.73 677.53 811.47 657.82 801.22 677.08 790.16 687.33 770.45 698.39 789.71 718.1 799.96"/><polygon class="cls-6" points="626.67 148.16 594.13 166.85 576.83 200.14 558.14 167.61 524.85 150.3 557.38 131.61 574.69 98.32 593.38 130.85 626.67 148.16"/><polygon class="cls-5" points="657.1 1641.96 637.84 1653.02 627.59 1672.73 616.53 1653.47 596.82 1643.22 616.08 1632.16 626.33 1612.45 637.39 1631.71 657.1 1641.96"/><polygon class="cls-6" points="688.1 2108.96 668.84 2120.02 658.59 2139.73 647.53 2120.47 627.82 2110.22 647.08 2099.16 657.33 2079.45 668.39 2098.71 688.1 2108.96"/><polygon class="cls-6" points="1274.04 1793.4 1237.11 1800.02 1209.58 1825.51 1202.97 1788.58 1177.47 1761.06 1214.4 1754.44 1241.93 1728.95 1248.55 1765.88 1274.04 1793.4"/><polygon class="cls-5" points="1225.67 850.16 1193.13 868.85 1175.83 902.14 1157.14 869.61 1123.85 852.3 1156.38 833.61 1173.69 800.32 1192.38 832.86 1225.67 850.16"/><polygon class="cls-5" points="168.1 1671.96 148.84 1683.02 138.59 1702.73 127.53 1683.47 107.82 1673.22 127.08 1662.16 137.33 1642.45 148.39 1661.71 168.1 1671.96"/><polygon class="cls-6" points="188.67 989.16 156.13 1007.85 138.82 1041.14 120.14 1008.61 86.85 991.3 119.38 972.61 136.69 939.32 155.38 971.86 188.67 989.16"/></g></svg>